SplineFontDB: 3.0
FontName: Granger_ch8plus
FullName: Granger_ch8plus
FamilyName: Granger_ch8plus
Weight: Medium
Copyright: Created by Eli Dupree,,, with FontForge 2.0 (http://fontforge.sf.net)
UComments: "2012-6-23: Created." 
Version: 001.000
ItalicAngle: 0
UnderlinePosition: -100
UnderlineWidth: 50
Ascent: 800
Descent: 200
LayerCount: 2
Layer: 0 0 "Back"  1
Layer: 1 0 "Fore"  0
XUID: [1021 911 31376480 16723342]
FSType: 0
OS2Version: 0
OS2_WeightWidthSlopeOnly: 0
OS2_UseTypoMetrics: 1
CreationTime: 1340431248
ModificationTime: 1341809006
OS2TypoAscent: 0
OS2TypoAOffset: 1
OS2TypoDescent: 0
OS2TypoDOffset: 1
OS2TypoLinegap: 90
OS2WinAscent: 0
OS2WinAOffset: 1
OS2WinDescent: 0
OS2WinDOffset: 1
HheadAscent: 0
HheadAOffset: 1
HheadDescent: 0
HheadDOffset: 1
Lookup: 258 0 0 "normal kerning"  {"normal kerning-1" [30,10,2] } []
MarkAttachClasses: 1
DEI: 91125
Encoding: ISO8859-1
UnicodeInterp: none
NameList: Adobe Glyph List
DisplaySize: -24
AntiAlias: 1
FitToEm: 1
WidthSeparation: 30
WinInfo: 0 28 14
BeginPrivate: 0
EndPrivate
BeginChars: 256 61

StartChar: exclam
Encoding: 33 33 0
Width: 192
VWidth: 0
Flags: HW
LayerCount: 2
Fore
SplineSet
90 727 m 1
 178 726 l 1
 101 151 l 1
 33 151 l 1
 90 727 l 1
16 11 m 0
 14 16 13 26 13 36 c 0
 13 42 13 48 14 53 c 0
 17 78 20 81 56 81 c 0
 95 81 95 81 95 42 c 0
 95 4 94 3 58 0 c 0
 53 0 49 -1 45 -1 c 0
 28 -1 19 3 16 11 c 0
EndSplineSet
Validated: 1
EndChar

StartChar: quotesingle
Encoding: 39 39 1
Width: 121
VWidth: 0
Flags: HW
LayerCount: 2
Fore
SplineSet
96 497 m 0
 92 483 81 481 67 478 c 0
 66 478 64 477 62 477 c 0
 54 477 43 480 38 485 c 0
 34 489 33 495 33 501 c 0
 33 509 35 516 36 522 c 0
 36 525 37 527 37 530 c 0
 37 548 28 568 23 576 c 0
 18 584 15 598 15 610 c 0
 15 612 15 613 15 615 c 0
 17 637 19 638 45 638 c 0
 70 638 74 635 88 610 c 0
 98 593 102 571 104 551 c 0
 104 547 105 543 105 539 c 0
 105 522 101 513 96 497 c 0
EndSplineSet
Validated: 1
EndChar

StartChar: comma
Encoding: 44 44 2
Width: 117
VWidth: 0
Flags: HW
LayerCount: 2
Fore
SplineSet
14 -54 m 0
 14 -34 19 -12 25 -6 c 0
 33 2 33 6 25 11 c 0
 19 15 14 35 14 56 c 0
 14 93 15 94 48 94 c 0
 90 94 102 76 102 4 c 0
 102 -65 88 -91 45 -91 c 0
 16 -91 14 -89 14 -54 c 0
EndSplineSet
Validated: 1
EndChar

StartChar: period
Encoding: 46 46 3
Width: 172
VWidth: 0
Flags: HWO
LayerCount: 2
Fore
SplineSet
19 15 m 0
 16 22 15 35 15 49 c 0
 15 56 15 64 16 70 c 0
 20 103 25 106 71 106 c 0
 122 106 122 106 122 55 c 0
 122 5 121 4 74 0 c 0
 68 -1 62 -1 57 -1 c 0
 35 -1 23 4 19 15 c 0
EndSplineSet
EndChar

StartChar: semicolon
Encoding: 59 59 4
Width: 153
VWidth: 0
Flags: HW
LayerCount: 2
Fore
SplineSet
15 -115 m 0
 15 -97 24 -73 39 -56 c 0
 54 -38 62 -20 62 2 c 0
 62 19 58 39 49 64 c 0
 41 86 35 110 35 131 c 0
 35 166 42 176 68 176 c 0
 100 176 107 161 117 126 c 0
 125 97 139 47 139 0 c 0
 139 -57 122 -99 105 -119 c 0
 89 -138 67 -145 46 -145 c 0
 18 -145 15 -143 15 -115 c 0
19 336 m 0
 16 343 15 357 15 371 c 0
 15 378 15 385 16 392 c 0
 20 425 25 428 72 428 c 0
 78 428 l 0
 124 428 124 427 124 377 c 0
 124 327 122 325 75 321 c 0
 69 320 63 320 58 320 c 0
 35 320 23 325 19 336 c 0
EndSplineSet
Validated: 1
EndChar

StartChar: question
Encoding: 63 63 5
Width: 477
VWidth: 0
Flags: HW
LayerCount: 2
Fore
SplineSet
171 278 m 1
 171 413 l 1
 229 417 l 2
 330 424 385 470 393 542 c 0
 394 548 394 553 394 559 c 0
 394 623 352 661 299 666 c 0
 292 667 284 667 276 667 c 0
 202 667 102 643 88 606 c 0
 84 596 70 591 48 591 c 0
 16 591 13 593 13 621 c 0
 13 663 28 686 70 707 c 0
 122 733 179 747 272 747 c 0
 338 747 377 734 402 712 c 0
 441 678 462 619 463 562 c 0
 463 560 463 559 463 557 c 0
 463 436 397 370 297 354 c 2
 240 345 l 1
 240 244 l 1
 240 143 l 1
 206 143 l 1
 171 143 l 1
 171 278 l 1
162 11 m 0
 160 16 159 26 159 36 c 0
 159 42 159 48 160 53 c 0
 163 78 166 81 202 81 c 0
 241 81 241 81 241 42 c 0
 241 4 241 3 205 0 c 0
 200 0 196 -1 192 -1 c 0
 175 -1 165 3 162 11 c 0
EndSplineSet
Validated: 1
EndChar

StartChar: A
Encoding: 65 65 6
Width: 479
VWidth: 0
Flags: HW
LayerCount: 2
Fore
SplineSet
242 779 m 0
 307 779 l 1
 307 733 l 2
 307 709 304 705 297 701 c 0
 293 698 291 695 291 688 c 0
 291 679 295 663 302 637 c 0
 311 606 327 537 337 483 c 0
 386 218 427 68 450 68 c 0
 459 68 464 56 464 34 c 2
 464 0 l 1
 400 0 l 1
 336 0 l 1
 337 46 l 2
 337 47 337 47 337 48 c 0
 337 91 311 246 292 305 c 0
 288 319 275 322 229 322 c 2
 172 322 l 1
 166 285 l 2
 162 265 151 212 141 168 c 0
 129 117 124 92 124 80 c 0
 124 69 128 68 137 68 c 0
 147 68 152 58 152 34 c 2
 152 0 l 1
 83 0 l 1
 15 0 l 1
 15 34 l 2
 15 57 19 68 29 68 c 0
 38 68 46 82 50 105 c 0
 53 125 64 181 74 229 c 0
 141 553 163 656 163 693 c 0
 163 700 151 684 151 769 c 0
 151 772 151 775 151 779 c 1
 151 779 224 779 242 779 c 0
230 578 m 0
 225 578 214 539 204 488 c 2
 185 390 l 1
 227 390 l 2
 262 390 269 393 269 409 c 0
 269 439 240 569 231 578 c 0
 230 578 l 0
EndSplineSet
Validated: 1
EndChar

StartChar: a
Encoding: 97 97 7
Width: 438
VWidth: 0
Flags: HW
LayerCount: 2
Fore
SplineSet
182 400 m 0
 284 400 334 308 349 217 c 0
 361 142 356 81 383 81 c 0
 385 81 387 81 389 82 c 0
 392 83 396 83 399 83 c 0
 411 83 423 78 423 63 c 0
 423 28 410 0 372 0 c 0
 350 0 330 23 323 31 c 0
 319 35 315 37 310 37 c 0
 300 37 286 30 265 19 c 0
 241 7 213 0 182 0 c 0
 158 0 133 4 110 12 c 0
 62 29 24 95 16 176 c 0
 15 182 15 189 15 195 c 0
 15 284 74 400 182 400 c 0
182 325 m 0
 111 323 91 243 91 195 c 0
 91 139 113 103 137 86 c 0
 147 79 162 75 180 75 c 0
 201 75 224 81 245 93 c 0
 270 109 286 135 286 167 c 0
 286 228 257 325 184 325 c 0
 183 325 183 325 182 325 c 0
EndSplineSet
Validated: 1
EndChar

StartChar: b
Encoding: 98 98 8
Width: 338
VWidth: 0
Flags: HW
LayerCount: 2
Fore
SplineSet
15 741 m 1
 38 741 60 741 83 741 c 1
 83 545 l 2
 83 525 83 507 83 491 c 0
 83 393 83 375 90 375 c 0
 92 375 95 377 98 378 c 0
 107 382 128 400 176 400 c 0
 218 400 246 394 268 366 c 0
 294 333 323 297 323 187 c 0
 323 89 299 46 258 16 c 0
 244 6 211 0 177 0 c 0
 139 0 115 10 103 16 c 0
 90 23 84 21 84 14 c 0
 84 8 69 0 50 0 c 2
 15 0 l 1
 15 247 15 494 15 741 c 1
179 305 m 0
 160 305 128 290 113 261 c 0
 99 233 92 210 92 187 c 0
 92 166 98 146 108 124 c 0
 123 90 152 74 179 74 c 0
 199 74 218 83 230 99 c 0
 246 120 255 152 255 186 c 0
 255 203 253 221 248 238 c 0
 236 281 207 305 179 305 c 0
EndSplineSet
Validated: 1
EndChar

StartChar: B
Encoding: 66 66 9
Width: 368
VWidth: 0
Flags: HW
LayerCount: 2
Fore
SplineSet
203 422 m 0
 255 452 272 477 273 541 c 0
 273 543 273 546 273 548 c 0
 273 619 243 652 188 674 c 0
 163 684 154 686 137 686 c 1
 134 683 130 608 126 524 c 0
 121 404 l 1
 121 404 124 404 129 404 c 0
 144 404 175 406 203 422 c 0
245 100 m 0
 266 119 277 149 277 180 c 0
 277 239 239 304 159 313 c 0
 150 314 141 315 135 315 c 0
 127 315 122 314 122 314 c 1
 122 180 l 1
 122 68 l 1
 146 69 l 2
 161 69 211 69 245 100 c 0
15 34 m 2
 15 63 19 69 35 69 c 0
 54 69 54 108 54 362 c 0
 54 505 57 614 60 642 c 0
 62 658 63 669 63 677 c 0
 63 692 58 693 41 693 c 0
 18 693 15 696 15 728 c 2
 15 763 l 1
 110 760 l 2
 186 757 215 751 254 732 c 0
 324 697 353 641 353 554 c 0
 353 551 353 548 353 545 c 0
 351 483 340 439 301 401 c 0
 260 360 l 1
 296 329 l 2
 332 298 348 239 349 182 c 0
 349 180 349 178 349 176 c 0
 349 102 313 54 266 28 c 0
 233 10 206 1 122 0 c 2
 15 -2 l 1
 15 34 l 2
EndSplineSet
Validated: 1
EndChar

StartChar: c
Encoding: 99 99 10
Width: 304
VWidth: 0
Flags: HW
LayerCount: 2
Fore
SplineSet
95 17 m 0
 48 42 16 100 15 219 c 0
 15 221 15 222 15 224 c 0
 15 319 27 336 68 374 c 0
 90 395 124 399 159 399 c 0
 161 399 l 2
 223 399 288 365 288 307 c 0
 288 288 278 272 250 272 c 0
 233 272 228 289 214 300 c 0
 202 310 182 324 157 324 c 0
 155 324 152 324 150 324 c 0
 126 321 95 294 87 253 c 0
 85 243 84 232 84 219 c 0
 84 172 97 113 117 94 c 0
 130 82 147 75 165 75 c 0
 180 75 195 80 207 89 c 0
 217 97 234 116 252 116 c 0
 253 116 l 0
 277 116 289 109 289 85 c 0
 289 52 276 39 261 28 c 0
 233 7 201 0 171 0 c 0
 140 0 112 8 95 17 c 0
EndSplineSet
Validated: 1
EndChar

StartChar: C
Encoding: 67 67 11
Width: 419
VWidth: 0
Flags: HW
LayerCount: 2
Fore
SplineSet
172 9 m 0
 124 26 75 77 57 119 c 0
 29 185 15 267 15 356 c 0
 15 423 23 494 39 563 c 0
 66 682 133 734 225 735 c 0
 226 735 228 735 229 735 c 0
 305 735 350 708 366 664 c 0
 373 645 384 630 391 630 c 0
 399 630 404 617 404 596 c 2
 404 562 l 1
 331 562 l 1
 258 562 l 1
 258 596 l 2
 258 622 268 630 281 630 c 1
 277 657 247 659 234 659 c 0
 228 659 l 0
 176 655 132 622 111 526 c 0
 97 462 90 409 90 360 c 0
 90 331 92 304 97 277 c 0
 121 136 162 77 232 77 c 0
 240 77 248 78 256 79 c 0
 267 81 273 93 273 99 c 0
 273 102 272 103 270 103 c 0
 263 103 258 117 258 138 c 2
 258 172 l 1
 326 172 l 1
 394 172 l 1
 394 138 l 2
 394 119 390 103 385 103 c 0
 380 103 375 99 375 93 c 0
 375 87 367 69 355 54 c 0
 325 16 275 0 229 0 c 0
 208 0 189 3 172 9 c 0
EndSplineSet
Validated: 1
EndChar

StartChar: d
Encoding: 100 100 12
Width: 363
VWidth: 0
Flags: HW
LayerCount: 2
Fore
SplineSet
307 760 m 0
 309 760 311 760 313 760 c 2
 348 760 l 1
 342 597 l 2
 339 507 333 336 330 217 c 2
 325 0 l 1
 291 0 l 2
 268 0 258 5 258 15 c 0
 258 24 257 28 253 28 c 0
 249 28 240 24 223 15 c 0
 204 5 174 0 144 0 c 0
 110 0 77 7 61 19 c 1
 30 43 15 95 15 182 c 0
 15 185 15 188 15 191 c 0
 16 331 61 398 155 398 c 0
 160 398 165 397 170 397 c 0
 199 395 231 390 240 386 c 0
 242 385 243 385 245 385 c 0
 256 385 263 405 265 480 c 0
 266 541 272 619 274 695 c 0
 275 745 279 760 307 760 c 0
165 318 m 0
 134 318 111 288 92 226 c 0
 88 212 86 197 86 182 c 0
 86 129 110 78 142 78 c 0
 152 78 171 83 183 90 c 0
 195 97 216 113 231 126 c 0
 254 147 258 157 258 205 c 0
 258 250 254 264 236 280 c 0
 208 305 185 318 165 318 c 0
EndSplineSet
Validated: 1
EndChar

StartChar: D
Encoding: 68 68 13
Width: 439
VWidth: 0
Flags: HW
LayerCount: 2
Fore
SplineSet
15 751 m 1
 96 751 l 1
 273 738 323 701 380 585 c 0
 411 522 422 477 424 391 c 0
 424 379 424 367 424 357 c 0
 424 280 417 254 397 190 c 0
 377 128 348 85 286 42 c 0
 244 13 129 -7 65 -7 c 0
 43 -7 28 -5 23 0 c 0
 19 4 16 21 16 38 c 0
 16 60 21 71 34 74 c 0
 50 78 52 96 58 292 c 0
 62 409 65 543 65 590 c 0
 65 670 64 669 43 672 c 0
 25 675 21 682 18 713 c 2
 15 751 l 1
133 666 m 1
 133 550 l 2
 133 482 131 345 127 247 c 2
 120 75 l 1
 153 82 l 2
 171 86 205 93 226 104 c 0
 288 135 307 157 334 239 c 0
 350 287 358 332 358 375 c 0
 358 429 345 481 320 532 c 0
 283 607 240 647 177 663 c 1
 133 666 l 1
EndSplineSet
Validated: 1
EndChar

StartChar: e
Encoding: 101 101 14
Width: 351
VWidth: 0
Flags: HW
LayerCount: 2
Fore
SplineSet
189 385 m 0
 245 385 298 363 322 317 c 0
 331 300 336 266 336 234 c 0
 336 203 331 174 319 168 c 0
 296 156 261 153 203 153 c 0
 145 153 99 152 96 149 c 1
 96 148 96 148 96 147 c 0
 96 99 129 78 177 74 c 0
 182 74 188 73 193 73 c 0
 214 73 229 77 233 92 c 0
 238 109 246 113 281 113 c 2
 324 113 l 1
 324 75 l 2
 324 45 319 34 299 21 c 0
 278 8 231 0 186 0 c 0
 164 0 142 2 124 6 c 0
 80 17 36 64 27 99 c 0
 24 111 15 151 15 192 c 0
 15 196 15 199 15 203 c 0
 18 268 23 289 41 315 c 0
 74 361 133 385 189 385 c 0
192 308 m 0
 124 307 97 269 91 230 c 1
 178 230 l 2
 192 230 l 0
 249 230 264 231 264 248 c 0
 264 252 263 256 262 262 c 0
 257 285 212 308 192 308 c 0
EndSplineSet
Validated: 1
EndChar

StartChar: E
Encoding: 69 69 15
Width: 431
VWidth: 0
Flags: HW
LayerCount: 2
Fore
SplineSet
20 1 m 0
 17 4 15 17 15 31 c 0
 15 49 18 56 28 59 c 0
 44 63 47 93 57 363 c 0
 61 464 66 578 69 618 c 2
 74 691 l 1
 53 694 l 2
 34 696 33 699 33 725 c 2
 33 753 l 1
 94 758 l 2
 128 761 207 763 271 763 c 0
 290 763 306 763 319 763 c 0
 384 763 391 761 403 749 c 0
 412 740 416 733 416 719 c 0
 416 713 415 706 414 697 c 0
 410 659 405 650 384 650 c 0
 380 650 377 651 372 651 c 0
 351 653 348 655 346 676 c 2
 344 700 l 1
 267 699 l 2
 225 699 179 697 165 695 c 2
 139 691 l 1
 134 579 l 2
 131 517 127 455 125 440 c 2
 120 413 l 1
 171 413 l 2
 216 413 222 415 225 428 c 0
 227 437 230 441 243 441 c 0
 246 441 251 440 256 440 c 2
 284 438 l 1
 283 395 l 2
 283 336 279 327 248 327 c 0
 232 327 221 331 218 338 c 0
 215 346 202 348 169 348 c 2
 124 348 l 1
 119 232 l 2
 116 172 115 136 115 114 c 0
 115 86 117 79 121 75 c 0
 123 73 138 73 161 73 c 0
 180 73 203 73 228 74 c 0
 325 78 330 79 332 93 c 0
 334 106 338 108 362 108 c 2
 391 108 l 1
 393 74 l 2
 393 67 394 61 394 56 c 0
 394 17 376 13 274 9 c 0
 220 6 142 2 101 0 c 0
 83 -1 65 -1 51 -1 c 0
 34 -1 22 -1 20 1 c 0
EndSplineSet
Validated: 1
EndChar

StartChar: f
Encoding: 102 102 16
Width: 391
VWidth: 0
Flags: HWO
HStem: 332 68<-294 -189.885 -108 45> 677 83<-70.627 34.342>
VStem: -189 70<400 618.343> -160 69<0 163.382>
LayerCount: 2
Fore
SplineSet
151 0 m 1
 151 0 146 73 142 146 c 0
 133 309 141 331 88 332 c 1
 17 331 l 1
 15 400 l 1
 69 400 l 1
 122 400 l 1
 122 492 l 2
 122 622 136 680 178 719 c 0
 204 743 233 760 283 760 c 0
 284 760 286 760 287 760 c 0
 344 759 376 733 376 706 c 0
 376 670 370 671 353 665 c 0
 350 664 348 664 345 664 c 0
 331 664 315 674 298 676 c 0
 296 676 294 676 291 676 c 0
 264 676 230 657 214 619 c 0
 200 586 192 533 192 487 c 0
 192 472 193 457 195 444 c 1
 198 400 l 1
 279 400 l 1
 356 400 l 1
 356 366 l 1
 356 332 l 1
 282 332 l 1
 203 332 l 1
 203 332 211 221 214 166 c 0
 217 111 220 0 220 0 c 2
 151 0 l 1
EndSplineSet
Validated: 1
EndChar

StartChar: g
Encoding: 103 103 17
Width: 350
VWidth: 0
Flags: HW
LayerCount: 2
Fore
SplineSet
319 403 m 0
 320 403 l 1
 321 403 l 1
 328 302 335 201 335 100 c 0
 335 77 335 54 334 31 c 0
 332 -8 330 -39 319 -77 c 1
 306 -115 287 -153 255 -177 c 0
 233 -194 206 -200 179 -200 c 0
 171 -200 163 -200 156 -199 c 0
 125 -195 92 -189 67 -170 c 0
 53 -159 44 -142 44 -124 c 0
 44 -121 44 -117 45 -114 c 0
 47 -102 56 -91 68 -87 c 0
 76 -85 83 -84 91 -84 c 0
 99 -84 107 -85 114 -89 c 0
 130 -97 139 -116 157 -121 c 1
 161 -122 166 -122 170 -122 c 0
 192 -122 214 -112 227 -95 c 1
 247 -68 254 -43 254 -11 c 0
 254 -7 254 -3 254 1 c 1
 255 7 248 5 245 5 c 0
 240 5 235 5 230 5 c 0
 173 5 l 0
 132 7 88 20 60 51 c 1
 30 88 17 136 15 183 c 1
 15 220 17 259 30 294 c 1
 42 322 54 352 78 372 c 0
 98 390 126 397 152 397 c 0
 158 397 164 397 170 396 c 0
 191 395 211 387 232 387 c 0
 233 387 234 387 235 387 c 1
 242 386 245 395 243 400 c 1
 268 401 294 402 319 403 c 0
174 322 m 0
 155 322 134 319 120 305 c 1
 101 283 88 256 84 227 c 1
 83 219 83 210 83 202 c 0
 83 185 84 169 87 153 c 0
 91 123 114 99 142 89 c 0
 154 84 166 82 178 82 c 0
 206 82 235 94 256 113 c 1
 256 128 257 143 257 159 c 0
 257 181 256 203 255 225 c 0
 253 252 252 279 247 306 c 1
 225 318 199 322 174 322 c 0
EndSplineSet
Validated: 1
EndChar

StartChar: F
Encoding: 70 70 18
Width: 459
VWidth: 0
Flags: HW
LayerCount: 2
Fore
SplineSet
33 27 m 0
 33 52 38 62 53 67 c 0
 72 73 72 81 72 379 c 2
 72 686 l 1
 42 686 l 2
 20 686 15 687 15 702 c 0
 15 707 15 713 16 722 c 2
 19 759 l 1
 228 759 l 1
 438 759 l 1
 441 708 l 1
 444 657 l 1
 409 657 l 2
 381 657 374 660 374 676 c 0
 374 694 367 696 257 696 c 2
 140 696 l 1
 140 558 l 1
 140 422 l 1
 211 421 l 2
 215 421 218 421 222 421 c 0
 261 421 285 426 290 434 c 0
 294 442 312 447 331 448 c 1
 365 448 l 1
 365 384 l 1
 365 321 l 1
 330 321 l 2
 311 321 294 326 291 333 c 0
 288 342 267 347 216 348 c 1
 141 346 l 1
 139 211 l 2
 138 187 138 168 138 152 c 0
 138 76 144 72 160 72 c 0
 176 72 179 65 179 39 c 0
 179 33 179 28 179 24 c 0
 179 6 175 0 141 0 c 0
 137 0 133 0 128 0 c 0
 117 0 107 0 99 0 c 0
 80 0 67 0 57 0 c 0
 34 0 33 3 33 27 c 0
EndSplineSet
Validated: 1
EndChar

StartChar: G
Encoding: 71 71 19
Width: 504
VWidth: 0
Flags: HW
LayerCount: 2
Fore
SplineSet
185 -4 m 0
 144 7 95 34 65 91 c 0
 31 156 15 248 15 391 c 0
 15 395 15 400 15 404 c 0
 16 487 37 569 75 635 c 0
 112 700 209 757 314 757 c 0
 322 757 329 757 337 756 c 0
 406 751 448 722 472 696 c 0
 485 682 489 675 489 634 c 0
 489 624 488 611 488 596 c 1
 488 515 l 1
 454 515 l 1
 421 515 l 1
 419 578 l 1
 417 642 l 1
 417 642 399 660 388 666 c 0
 361 681 330 687 301 687 c 0
 279 687 257 683 238 676 c 0
 206 664 172 642 139 594 c 0
 97 532 85 434 85 354 c 0
 85 315 87 281 91 257 c 0
 100 194 123 114 190 76 c 0
 200 70 232 60 253 59 c 0
 254 59 255 59 256 59 c 0
 293 59 342 75 371 115 c 0
 390 140 406 185 406 202 c 0
 406 205 406 207 405 208 c 0
 403 210 379 213 352 216 c 0
 335 218 324 219 316 219 c 0
 302 219 301 215 300 204 c 0
 298 189 294 186 268 186 c 2
 238 186 l 1
 238 250 l 1
 238 313 l 1
 267 316 l 2
 272 316 276 317 280 317 c 0
 293 317 297 313 299 303 c 0
 302 290 310 287 347 287 c 0
 371 287 395 285 401 283 c 0
 409 280 413 284 415 296 c 0
 417 311 421 313 447 313 c 2
 485 313 l 1
 483 229 l 2
 482 168 466 123 452 98 c 0
 424 50 389 21 339 0 c 0
 318 -9 288 -13 258 -13 c 0
 232 -13 206 -10 185 -4 c 0
EndSplineSet
Validated: 1
EndChar

StartChar: h
Encoding: 104 104 20
Width: 347
VWidth: 0
Flags: HW
LayerCount: 2
Fore
SplineSet
22 241 m 2
 26 374 28 541 28 612 c 2
 28 741 l 1
 51 741 75 741 98 741 c 1
 98 568 l 1
 98 395 l 1
 174 398 l 2
 187 399 199 399 210 399 c 0
 322 399 332 364 332 156 c 2
 332 0 l 1
 309 0 287 0 264 0 c 1
 264 127 l 2
 264 273 253 315 210 326 c 0
 204 328 198 328 192 328 c 0
 162 328 129 311 112 284 c 0
 99 264 93 230 90 129 c 2
 86 0 l 1
 62 0 39 0 15 0 c 1
 22 241 l 2
EndSplineSet
Validated: 1
EndChar

StartChar: i
Encoding: 105 105 21
Width: 151
VWidth: 0
Flags: HW
LayerCount: 2
Fore
SplineSet
29 19 m 0
 19 30 15 40 15 73 c 0
 15 91 16 117 18 154 c 0
 22 217 30 295 37 327 c 0
 49 385 51 385 86 388 c 0
 89 388 92 388 94 388 c 0
 120 388 125 374 125 353 c 0
 125 339 116 309 108 270 c 0
 93 192 85 151 85 125 c 0
 85 107 89 96 96 86 c 0
 104 72 121 66 121 38 c 0
 121 13 108 0 79 0 c 0
 59 0 40 7 29 19 c 0
60 454 m 0
 55 459 50 474 50 488 c 0
 50 490 50 492 50 494 c 0
 53 519 70 522 95 525 c 1
 95 525 96 525 97 525 c 0
 102 525 117 524 125 517 c 0
 136 507 136 483 136 483 c 1
 136 483 135 458 125 448 c 0
 116 439 97 439 97 439 c 1
 72 439 71 442 60 454 c 0
EndSplineSet
Validated: 1
EndChar

StartChar: H
Encoding: 72 72 22
Width: 518
VWidth: 0
Flags: HW
LayerCount: 2
Fore
SplineSet
15 34 m 1
 15 53 20 68 25 68 c 0
 31 68 34 187 34 375 c 0
 34 557 29 682 24 682 c 0
 19 682 15 698 15 717 c 2
 15 751 l 1
 69 751 l 1
 123 751 l 1
 123 717 l 2
 123 698 118 682 113 682 c 0
 107 682 103 634 103 557 c 0
 103 451 105 430 118 425 c 0
 126 422 192 419 263 419 c 2
 393 419 l 1
 399 479 l 2
 403 522 406 562 406 594 c 0
 406 643 401 675 391 679 c 0
 382 682 376 698 376 718 c 2
 376 751 l 1
 439 751 l 1
 503 751 l 1
 503 717 l 2
 503 695 498 682 490 682 c 0
 480 682 475 643 470 500 c 0
 466 386 464 291 464 219 c 0
 464 122 468 68 474 68 c 0
 479 68 483 53 483 34 c 2
 483 0 l 1
 430 0 l 1
 376 0 l 1
 376 34 l 2
 376 53 381 68 386 68 c 0
 392 68 396 122 396 210 c 2
 396 351 l 1
 249 351 l 1
 103 351 l 1
 103 210 l 2
 103 75 104 68 123 68 c 0
 139 68 142 62 142 34 c 2
 142 0 l 1
 79 0 l 1
 15 0 l 1
 15 34 l 1
EndSplineSet
Validated: 1
EndChar

StartChar: I
Encoding: 73 73 23
Width: 596
VWidth: 0
Flags: HW
LayerCount: 2
Fore
SplineSet
22 40 m 1
 19 61 16 92 16 109 c 0
 16 139 17 141 55 141 c 0
 93 141 94 141 94 106 c 2
 94 70 l 1
 167 75 l 2
 172 75 178 76 183 76 c 0
 211 76 237 71 248 71 c 0
 251 71 252 71 253 72 c 0
 257 76 261 218 264 390 c 2
 268 696 l 1
 189 696 l 1
 90 696 l 1
 90 663 l 2
 90 625 89 624 57 624 c 0
 28 624 22 628 17 653 c 0
 16 660 15 672 15 684 c 0
 15 698 16 713 18 726 c 2
 24 770 l 1
 287 770 l 1
 581 770 l 1
 578 714 l 1
 575 658 l 1
 538 655 l 2
 530 654 525 654 520 654 c 0
 504 654 502 659 502 675 c 0
 502 697 499 698 424 698 c 2
 335 697 l 1
 332 400 l 2
 331 318 331 240 331 181 c 0
 331 122 331 84 332 80 c 0
 334 73 346 69 385 69 c 0
 395 69 406 70 419 70 c 2
 508 73 l 1
 511 100 l 2
 514 123 519 125 548 127 c 1
 581 127 l 1
 581 68 l 2
 581 15 568 4 548 0 c 0
 538 -2 521 -3 475 -3 c 0
 423 -3 334 -2 176 0 c 1
 26 0 l 1
 22 40 l 1
EndSplineSet
Validated: 1
EndChar

StartChar: j
Encoding: 106 106 24
Width: 254
VWidth: 0
Flags: HW
LayerCount: 2
Fore
SplineSet
15 -148 m 0
 15 -146 15 -145 15 -143 c 0
 15 -124 26 -117 39 -117 c 0
 44 -117 49 -118 54 -120 c 0
 61 -123 68 -124 74 -124 c 0
 109 -124 134 -88 139 -63 c 0
 149 -19 155 1 158 179 c 2
 161 401 l 1
 195 401 l 1
 230 401 l 1
 226 150 l 2
 223 -85 209 -121 178 -157 c 0
 157 -181 130 -199 83 -199 c 1
 77 -199 71 -200 66 -200 c 0
 28 -200 19 -189 15 -148 c 0
200 546 m 0
 225 546 239 529 239 504 c 0
 239 477 226 464 197 462 c 0
 196 462 195 462 194 462 c 0
 175 462 156 471 156 499 c 0
 156 539 170 546 200 546 c 0
EndSplineSet
Validated: 1
EndChar

StartChar: J
Encoding: 74 74 25
Width: 650
VWidth: 0
Flags: HW
LayerCount: 2
Fore
SplineSet
111 21 m 0
 80 49 44 121 44 159 c 0
 44 168 37 175 29 175 c 0
 19 175 15 185 15 209 c 2
 15 242 l 1
 78 242 l 1
 141 242 l 1
 141 209 l 2
 141 190 136 175 130 175 c 0
 123 175 131 169 131 151 c 0
 132 91 184 67 226 67 c 0
 240 67 254 70 264 75 c 0
 298 91 328 148 335 239 c 0
 338 284 341 315 341 360 c 0
 341 409 338 475 329 594 c 2
 322 679 l 1
 261 679 l 2
 228 679 193 682 185 685 c 0
 182 686 181 687 179 687 c 0
 172 687 170 679 170 660 c 0
 170 637 170 631 153 631 c 0
 148 631 142 631 134 632 c 0
 99 635 97 637 94 673 c 0
 93 679 93 686 93 692 c 0
 93 708 95 724 97 733 c 2
 102 756 l 1
 337 751 l 2
 466 748 587 744 604 741 c 0
 635 736 635 735 635 683 c 2
 635 630 l 1
 601 630 l 2
 574 630 567 634 567 649 c 0
 567 674 550 679 464 679 c 2
 391 679 l 1
 396 637 l 2
 405 571 413 447 413 340 c 0
 413 275 410 215 403 179 c 0
 384 80 354 28 296 0 c 0
 271 -12 245 -17 220 -17 c 0
 176 -17 136 -1 111 21 c 0
EndSplineSet
Validated: 1
EndChar

StartChar: k
Encoding: 107 107 26
Width: 322
VWidth: 0
Flags: HW
LayerCount: 2
Fore
SplineSet
86 135 m 2
 86 0 l 1
 15 0 l 1
 15 0 18 734 18 741 c 1
 88 743 l 1
 88 587 86 431 86 275 c 1
 256 400 l 1
 306 400 l 1
 307 343 l 1
 119 204 l 1
 306 51 l 1
 304 0 l 1
 249 0 l 1
 86 135 l 2
EndSplineSet
Validated: 1
EndChar

StartChar: K
Encoding: 75 75 27
Width: 505
VWidth: 0
Flags: HW
LayerCount: 2
Fore
SplineSet
367 -3 m 0
 330 0 326 4 326 26 c 0
 326 40 312 67 294 88 c 0
 191 209 150 260 133 260 c 0
 123 260 122 243 122 212 c 0
 122 200 122 186 122 170 c 0
 122 86 125 68 137 68 c 0
 147 68 151 58 151 34 c 2
 151 0 l 1
 83 0 l 1
 15 0 l 1
 15 34 l 2
 15 61 19 68 34 68 c 0
 49 68 51 75 51 236 c 0
 51 274 51 321 51 378 c 0
 50 670 49 689 33 689 c 0
 19 689 15 697 15 723 c 2
 15 757 l 1
 98 757 l 1
 180 757 l 1
 180 723 l 2
 180 694 177 690 154 687 c 2
 127 684 l 1
 124 569 l 1
 121 454 l 1
 179 511 l 2
 281 612 336 685 336 718 c 2
 336 748 l 1
 411 745 l 1
 486 742 l 1
 489 706 l 2
 490 699 490 693 490 688 c 0
 490 671 485 670 465 669 c 0
 443 669 425 654 379 599 c 0
 347 561 286 493 243 449 c 0
 200 405 164 364 163 360 c 0
 162 356 171 347 183 341 c 0
 195 335 233 296 268 256 c 0
 381 125 428 75 450 67 c 0
 467 61 471 51 471 24 c 0
 471 21 471 19 471 17 c 0
 471 -2 469 -9 444 -9 c 0
 429 -9 405 -7 367 -3 c 0
EndSplineSet
Validated: 1
EndChar

StartChar: l
Encoding: 108 108 28
Width: 158
VWidth: 0
Flags: HW
LayerCount: 2
Fore
SplineSet
32 87 m 0
 22 150 15 245 15 346 c 0
 15 474 26 612 57 710 c 0
 68 745 83 749 100 749 c 0
 103 749 106 749 109 749 c 0
 134 748 142 736 143 714 c 0
 143 695 135 679 131 668 c 0
 100 588 92 473 92 350 c 0
 92 239 96 99 117 85 c 0
 131 76 139 53 139 34 c 0
 139 1 133 0 94 0 c 0
 64 0 38 51 32 87 c 0
EndSplineSet
Validated: 1
EndChar

StartChar: V
Encoding: 86 86 29
Width: 498
VWidth: 0
Flags: HW
LayerCount: 2
Fore
SplineSet
186 33 m 2
 186 51 190 68 194 70 c 0
 195 70 195 72 195 75 c 0
 195 91 185 144 170 205 c 0
 152 277 125 403 108 485 c 0
 73 656 63 682 35 682 c 0
 19 682 15 689 15 717 c 2
 15 751 l 1
 97 751 l 1
 180 751 l 1
 181 717 l 2
 181 689 178 682 161 682 c 0
 150 682 144 680 144 673 c 0
 144 670 145 666 147 661 c 0
 151 649 158 612 164 580 c 0
 182 480 246 211 254 202 c 0
 256 201 l 0
 260 201 266 219 270 245 c 0
 275 274 294 357 312 429 c 0
 349 576 359 624 359 665 c 0
 359 676 358 688 357 700 c 1
 356 751 l 1
 419 751 l 1
 483 751 l 1
 483 717 l 2
 483 693 479 682 469 682 c 0
 460 682 449 658 439 612 c 0
 425 550 409 476 333 151 c 0
 325 116 321 96 321 84 c 0
 321 75 323 71 328 70 c 0
 336 68 342 53 342 33 c 2
 342 0 l 1
 264 0 l 1
 186 0 l 1
 186 33 l 2
EndSplineSet
Validated: 1
EndChar

StartChar: L
Encoding: 76 76 30
Width: 481
VWidth: 0
Flags: HW
LayerCount: 2
Fore
SplineSet
15 33 m 1
 15 60 19 67 37 70 c 0
 54 72 59 63 59 182 c 0
 59 238 57 322 56 448 c 0
 54 636 54 643 35 643 c 0
 19 643 15 650 15 676 c 0
 15 713 30 721 100 721 c 0
 102 721 l 0
 160 721 171 714 171 677 c 0
 171 648 168 643 145 643 c 2
 119 643 l 1
 126 358 l 2
 130 201 135 72 136 71 c 0
 136 71 139 71 145 71 c 0
 164 71 212 72 267 75 c 0
 294 76 314 76 331 76 c 0
 349 76 361 76 370 76 c 0
 383 76 387 77 387 81 c 0
 387 89 400 87 421 94 c 1
 421 94 423 95 425 95 c 0
 432 95 449 93 456 88 c 0
 469 78 464 63 466 47 c 0
 466 44 466 41 466 37 c 0
 466 21 464 0 464 0 c 1
 17 0 l 1
 15 33 l 1
EndSplineSet
Validated: 1
EndChar

StartChar: m
Encoding: 109 109 31
Width: 568
VWidth: 0
Flags: HW
LayerCount: 2
Fore
SplineSet
23 181 m 2
 28 282 28 400 28 400 c 1
 28 400 37 398 58 398 c 0
 68 398 82 398 98 400 c 1
 98 386 100 381 105 381 c 0
 116 381 138 400 177 400 c 0
 230 400 261 388 275 373 c 0
 287 360 295 356 303 356 c 0
 312 356 323 362 341 371 c 0
 363 382 383 392 436 392 c 0
 532 392 553 359 553 226 c 0
 553 208 553 188 552 165 c 0
 550 110 548 0 548 0 c 1
 525 0 500 0 477 0 c 1
 477 0 479 101 480 146 c 0
 481 164 481 180 481 193 c 0
 481 271 472 280 454 295 c 0
 445 303 427 308 412 308 c 0
 407 308 402 307 398 306 c 0
 353 291 332 261 332 116 c 2
 332 0 l 1
 327 0 321 1 316 1 c 0
 301 1 287 -1 272 -1 c 0
 267 -1 261 0 256 0 c 1
 256 114 l 2
 256 116 256 119 256 121 c 0
 256 230 248 284 214 308 c 0
 205 315 192 320 179 320 c 0
 165 320 151 314 136 299 c 0
 101 263 98 250 94 138 c 2
 89 0 l 1
 66 0 38 0 15 0 c 1
 23 181 l 2
EndSplineSet
Validated: 1
EndChar

StartChar: M
Encoding: 77 77 32
Width: 701
VWidth: 0
Flags: HW
LayerCount: 2
Fore
SplineSet
286 68 m 1
 281 136 231 342 195 448 c 0
 184 479 175 512 175 523 c 0
 175 531 173 536 172 536 c 0
 167 536 156 465 148 379 c 0
 142 318 133 227 128 175 c 0
 125 144 123 120 123 104 c 0
 123 87 125 78 128 77 c 0
 133 75 138 60 138 42 c 2
 138 9 l 1
 77 9 l 1
 15 9 l 1
 15 42 l 2
 15 64 20 76 28 76 c 0
 44 76 58 161 72 340 c 0
 78 410 88 508 96 557 c 0
 102 596 106 635 106 667 c 0
 106 679 105 690 104 699 c 2
 98 753 l 1
 134 759 l 2
 154 762 183 765 197 765 c 0
 199 765 l 0
 220 765 222 763 222 731 c 0
 222 726 222 718 222 712 c 0
 222 658 241 558 265 491 c 0
 286 433 345 201 346 176 c 0
 346 173 347 171 348 171 c 0
 354 171 380 256 430 439 c 0
 456 533 483 625 491 643 c 0
 497 658 501 677 501 698 c 0
 501 705 500 713 499 720 c 2
 494 765 l 1
 562 765 l 1
 629 765 l 1
 629 733 l 2
 629 715 624 699 618 697 c 0
 614 696 612 688 612 670 c 0
 612 652 614 625 618 585 c 0
 629 477 642 304 653 149 c 0
 657 87 662 66 672 66 c 0
 681 66 686 55 686 33 c 2
 686 0 l 1
 629 0 l 1
 572 0 l 1
 572 32 l 2
 572 50 576 66 580 68 c 0
 582 69 583 83 583 105 c 0
 583 123 583 146 581 170 c 0
 572 319 552 561 549 564 c 0
 549 564 l 0
 548 564 531 507 512 437 c 0
 477 306 419 114 407 83 c 0
 402 71 405 66 416 66 c 0
 427 66 431 57 431 33 c 2
 431 0 l 1
 361 0 l 1
 292 0 l 1
 286 68 l 1
EndSplineSet
Validated: 1
EndChar

StartChar: n
Encoding: 110 110 33
Width: 334
VWidth: 0
Flags: HW
LayerCount: 2
Fore
SplineSet
15 196 m 1
 17 400 l 1
 81 400 l 1
 81 398 81 396 81 394 c 0
 81 381 84 377 90 377 c 0
 104 377 133 400 181 400 c 0
 229 400 268 386 292 347 c 0
 309 319 319 314 319 192 c 0
 319 184 319 176 319 167 c 2
 318 0 l 1
 245 0 l 1
 246 192 l 2
 246 262 242 283 229 298 c 0
 215 315 197 323 178 323 c 0
 167 323 155 321 144 316 c 0
 113 304 82 300 82 193 c 0
 82 191 82 188 82 185 c 2
 85 0 l 1
 15 0 l 1
 15 196 l 1
EndSplineSet
Validated: 1
EndChar

StartChar: S
Encoding: 83 83 34
Width: 431
VWidth: 0
Flags: HW
LayerCount: 2
Fore
SplineSet
100 25 m 0
 58 50 47 122 30 126 c 1
 19 126 15 137 15 165 c 2
 15 204 l 1
 98 204 l 1
 181 204 l 1
 181 169 l 2
 181 140 177 136 159 135 c 0
 151 135 147 127 147 117 c 0
 147 104 154 89 170 82 c 0
 181 77 192 75 204 75 c 0
 262 75 328 123 328 179 c 0
 328 231 293 281 183 336 c 0
 83 386 18 440 18 528 c 0
 18 591 23 651 74 706 c 0
 100 734 161 750 221 750 c 0
 223 750 l 0
 290 750 334 724 356 672 c 0
 368 643 378 634 394 634 c 0
 413 634 416 628 416 599 c 2
 416 565 l 1
 333 565 l 1
 250 565 l 1
 250 599 l 2
 250 625 254 634 267 634 c 0
 273 634 277 635 277 637 c 0
 277 640 272 644 261 653 c 0
 248 664 232 668 215 668 c 0
 193 668 171 662 159 656 c 0
 133 644 111 624 104 565 c 0
 103 557 102 550 102 543 c 0
 102 481 139 453 221 413 c 0
 323 363 345 337 378 291 c 0
 403 256 412 229 412 154 c 0
 412 62 338 0 200 0 c 0
 199 0 199 0 198 0 c 0
 155 0 142 0 100 25 c 0
EndSplineSet
Validated: 1
EndChar

StartChar: N
Encoding: 78 78 35
Width: 563
VWidth: 0
Flags: HW
LayerCount: 2
Fore
SplineSet
15 34 m 1
 15 62 18 68 34 68 c 0
 49 68 54 74 54 98 c 0
 54 118 55 258 58 417 c 0
 59 499 60 558 60 600 c 0
 60 685 57 702 49 702 c 0
 39 702 34 712 34 736 c 2
 34 770 l 1
 82 770 l 2
 108 770 143 767 160 764 c 0
 185 759 190 756 190 732 c 0
 190 727 189 720 189 714 c 0
 189 692 195 659 203 638 c 0
 249 512 371 271 393 230 c 2
 419 183 l 1
 425 367 l 2
 428 463 432 578 434 622 c 0
 435 640 435 654 435 665 c 0
 435 698 431 702 419 702 c 0
 405 702 403 710 401 736 c 1
 401 770 l 1
 475 770 l 1
 548 770 l 1
 548 737 l 2
 548 713 542 704 529 700 c 0
 506 694 502 635 493 300 c 0
 491 237 491 188 491 152 c 0
 491 93 493 68 498 68 c 0
 504 68 509 53 509 34 c 2
 509 0 l 1
 445 0 l 1
 382 0 l 1
 382 35 l 2
 382 57 368 95 341 144 c 0
 318 185 265 310 220 403 c 2
 135 578 l 1
 127 445 l 2
 125 408 125 361 125 315 c 0
 125 269 125 224 127 191 c 0
 133 81 137 68 153 68 c 0
 167 68 171 61 171 34 c 2
 171 0 l 1
 93 0 l 1
 15 0 l 1
 15 34 l 1
EndSplineSet
Validated: 1
EndChar

StartChar: o
Encoding: 111 111 36
Width: 383
VWidth: 0
Flags: HW
LayerCount: 2
Fore
SplineSet
196 400 m 0
 260 400 292 378 308 363 c 0
 350 324 364 285 368 196 c 0
 368 190 368 184 368 178 c 0
 368 118 354 87 345 70 c 0
 335 51 322 32 287 16 c 0
 264 6 232 0 198 0 c 0
 167 0 135 5 108 15 c 0
 41 41 15 89 15 193 c 0
 15 263 23 279 41 320 c 0
 52 345 68 361 92 376 c 0
 112 388 140 400 196 400 c 0
87 195 m 0
 87 194 87 193 87 192 c 0
 87 96 138 84 179 75 c 0
 184 74 191 73 197 73 c 0
 227 73 263 87 279 115 c 0
 292 138 297 168 297 196 c 0
 297 205 297 213 296 221 c 0
 291 264 269 321 195 321 c 0
 132 321 88 261 87 195 c 0
EndSplineSet
Validated: 1
EndChar

StartChar: O
Encoding: 79 79 37
Width: 569
VWidth: 0
Flags: HW
LayerCount: 2
Fore
SplineSet
322 641 m 2
 353 651 l 1
 330 669 l 2
 315 680 295 686 276 686 c 0
 259 686 243 681 231 672 c 0
 222 665 217 662 217 658 c 0
 217 654 222 651 231 644 c 0
 243 635 256 630 272 630 c 0
 286 630 302 634 322 641 c 2
383 99 m 0
 421 128 446 164 464 236 c 0
 475 278 480 324 480 370 c 0
 480 393 479 417 476 439 c 0
 471 481 458 514 446 541 c 2
 425 590 l 1
 387 569 l 2
 367 558 324 547 279 546 c 0
 278 546 277 545 276 545 c 0
 229 545 195 561 170 580 c 0
 155 591 141 600 137 600 c 0
 136 599 l 0
 134 597 116 572 105 533 c 0
 92 488 87 437 87 385 c 0
 87 289 107 193 142 140 c 0
 174 91 213 66 271 66 c 0
 273 66 275 66 277 66 c 0
 321 67 354 77 383 99 c 0
195 0 m 0
 129 18 91 67 73 103 c 0
 43 162 17 263 15 383 c 0
 15 388 15 392 15 396 c 0
 15 641 110 757 270 758 c 0
 272 758 273 758 275 758 c 0
 338 758 367 746 395 732 c 2
 439 710 l 1
 456 730 l 2
 470 746 476 753 505 753 c 0
 538 753 541 752 541 727 c 0
 541 705 532 682 518 665 c 2
 496 638 l 1
 521 579 l 2
 544 525 553 460 554 377 c 0
 554 371 554 366 554 361 c 0
 554 284 544 243 530 193 c 0
 513 131 464 70 433 43 c 0
 394 9 338 -11 276 -11 c 0
 250 -11 223 -8 195 0 c 0
EndSplineSet
Validated: 1
EndChar

StartChar: p
Encoding: 112 112 38
Width: 356
VWidth: 0
Flags: HW
LayerCount: 2
Fore
SplineSet
80 400 m 0
 95 400 105 388 105 384 c 0
 105 380 106 378 109 378 c 0
 119 378 145 400 182 400 c 0
 242 400 271 388 283 380 c 0
 316 360 341 307 341 229 c 0
 341 226 341 224 341 221 c 0
 340 164 332 57 255 18 c 0
 241 11 222 0 192 0 c 0
 167 0 141 5 126 15 c 2
 102 30 l 1
 97 -52 l 2
 94 -105 90 -142 85 -163 c 0
 80 -183 81 -200 44 -200 c 0
 22 -200 15 -195 15 -175 c 0
 15 -167 16 -157 18 -144 c 0
 23 -113 25 34 26 163 c 2
 28 400 l 1
 34 400 41 400 48 400 c 0
 59 400 71 400 80 400 c 0
199 316 m 0
 175 316 149 307 127 293 c 0
 100 276 99 269 99 206 c 0
 99 169 107 144 109 139 c 0
 113 129 118 102 143 91 c 0
 157 85 170 80 184 80 c 0
 202 80 221 89 244 119 c 0
 266 148 273 170 273 196 c 0
 273 205 271 215 270 226 c 0
 261 289 239 316 199 316 c 0
EndSplineSet
Validated: 1
EndChar

StartChar: P
Encoding: 80 80 39
Width: 394
VWidth: 0
Flags: HW
LayerCount: 2
Fore
SplineSet
15 755 m 1
 82 754 l 2
 124 754 187 750 221 745 c 0
 262 739 298 721 320 699 c 0
 343 676 359 645 368 618 c 0
 375 596 379 574 379 552 c 0
 379 506 365 463 348 435 c 0
 322 393 253 355 189 348 c 2
 136 343 l 1
 130 284 l 2
 127 252 124 191 124 149 c 2
 124 78 l 1
 160 76 164 75 164 38 c 0
 164 17 159 4 149 0 c 0
 140 -3 118 -5 96 -5 c 0
 72 -5 47 -3 38 1 c 0
 30 4 26 21 26 38 c 0
 26 56 30 72 39 72 c 0
 49 72 54 113 59 264 c 0
 63 369 65 508 65 571 c 2
 65 686 l 1
 40 686 l 2
 16 686 15 688 15 711 c 0
 15 714 15 717 15 720 c 2
 15 755 l 1
133 679 m 1
 133 546 l 1
 133 423 l 1
 139 423 146 423 153 423 c 0
 183 423 214 425 241 439 c 0
 283 461 299 502 299 543 c 0
 299 581 284 620 261 642 c 0
 233 667 179 675 133 679 c 1
EndSplineSet
Validated: 1
EndChar

StartChar: q
Encoding: 113 113 40
Width: 425
VWidth: 0
Flags: HW
LayerCount: 2
Fore
SplineSet
289 410 m 0
 290 410 l 0
 313 410 322 410 322 377 c 0
 322 356 318 322 312 268 c 0
 301 167 296 85 296 26 c 0
 296 -23 301 -56 308 -72 c 0
 319 -95 323 -102 341 -102 c 0
 347 -102 355 -101 366 -100 c 2
 410 -95 l 1
 410 -128 l 2
 410 -174 395 -185 335 -185 c 0
 296 -185 278 -180 263 -165 c 0
 235 -137 224 -104 224 -48 c 2
 224 0 l 1
 166 -6 l 2
 155 -7 146 -8 137 -8 c 0
 90 -8 65 9 42 52 c 0
 29 76 15 124 15 191 c 0
 15 194 15 197 15 200 c 0
 17 282 33 344 76 383 c 0
 93 398 138 408 176 408 c 0
 196 408 214 406 225 400 c 0
 242 391 249 390 252 398 c 0
 254 404 271 410 289 410 c 0
164 328 m 0
 159 328 154 325 148 322 c 0
 114 304 96 253 96 198 c 0
 96 159 105 120 123 89 c 0
 130 76 141 70 156 70 c 0
 164 70 173 71 183 75 c 0
 205 83 222 100 222 100 c 1
 229 188 l 2
 233 234 237 268 237 278 c 0
 237 289 230 309 210 319 c 0
 195 326 177 328 167 328 c 0
 166 328 165 328 164 328 c 0
EndSplineSet
Validated: 1
EndChar

StartChar: Q
Encoding: 81 81 41
Width: 613
VWidth: 0
Flags: HW
LayerCount: 2
Fore
SplineSet
292 117 m 2
 274 124 260 127 247 127 c 0
 233 127 221 123 210 114 c 0
 202 107 198 103 198 99 c 0
 198 95 202 92 210 85 c 0
 221 76 236 72 251 72 c 0
 268 72 287 78 300 89 c 2
 320 106 l 1
 292 117 l 2
347 658 m 0
 321 680 291 691 251 692 c 0
 249 692 247 692 245 692 c 0
 193 692 157 668 132 617 c 0
 101 553 80 464 80 368 c 0
 80 321 86 272 97 225 c 0
 106 186 123 160 125 158 c 0
 128 158 140 166 154 177 c 0
 169 190 197 203 254 204 c 0
 256 204 258 204 260 204 c 0
 297 204 323 195 341 186 c 0
 357 178 381 161 381 161 c 1
 381 161 391 177 403 215 c 0
 413 249 421 277 426 319 c 0
 428 341 430 364 430 387 c 0
 430 433 426 479 416 521 c 0
 399 593 382 629 347 658 c 0
178 758 m 0
 203 766 227 769 251 769 c 0
 307 769 357 749 392 715 c 0
 420 688 464 626 479 564 c 0
 491 514 501 474 501 397 c 0
 501 392 501 386 501 380 c 0
 500 297 487 235 471 179 c 0
 463 150 444 106 444 106 c 1
 444 106 454 95 465 82 c 0
 474 72 483 64 497 64 c 0
 504 64 512 65 521 70 c 0
 540 80 547 96 555 97 c 0
 560 97 568 99 576 99 c 0
 585 99 594 97 596 88 c 0
 597 84 598 78 598 72 c 0
 598 57 593 39 588 31 c 0
 580 19 558 -6 500 -6 c 0
 452 -6 440 13 421 29 c 0
 415 34 397 47 397 47 c 1
 358 25 l 2
 333 11 307 0 250 0 c 0
 249 0 246 0 245 0 c 0
 101 1 15 116 15 361 c 0
 15 365 15 370 15 375 c 0
 17 495 40 595 67 654 c 0
 84 690 119 740 178 758 c 0
EndSplineSet
Validated: 1
EndChar

StartChar: r
Encoding: 114 114 42
Width: 346
VWidth: 0
Flags: HW
LayerCount: 2
Fore
SplineSet
15 404 m 1
 52 407 l 2
 58 407 63 408 67 408 c 0
 83 408 89 405 89 396 c 0
 89 389 91 386 98 386 c 0
 103 386 109 387 120 390 c 0
 137 395 180 399 216 399 c 0
 301 399 331 366 331 318 c 0
 331 296 321 285 304 282 c 0
 303 282 300 282 299 282 c 0
 284 282 276 297 261 311 c 1
 243 323 225 329 206 329 c 0
 184 329 159 320 132 303 c 0
 100 283 96 252 96 208 c 0
 96 203 96 197 96 192 c 0
 96 186 96 179 96 171 c 0
 96 111 94 0 94 0 c 1
 72 0 42 0 20 0 c 1
 19 136 21 264 15 404 c 1
EndSplineSet
Validated: 1
EndChar

StartChar: R
Encoding: 82 82 43
Width: 398
VWidth: 0
Flags: HW
LayerCount: 2
Fore
SplineSet
232 396 m 0
 294 438 302 465 309 538 c 0
 310 546 311 555 311 564 c 0
 311 598 304 632 287 653 c 0
 262 685 187 701 154 701 c 0
 138 701 137 699 137 626 c 0
 137 585 132 512 126 462 c 0
 120 412 117 370 117 369 c 0
 117 367 121 367 127 367 c 0
 150 367 207 379 232 396 c 0
367 49 m 2
 368 19 l 1
 364 3 361 2 307 2 c 2
 249 2 l 1
 247 34 l 2
 245 60 239 73 213 103 c 0
 195 123 180 143 180 147 c 0
 180 151 164 172 144 194 c 2
 108 233 l 1
 108 153 l 2
 108 88 110 71 119 68 c 0
 126 65 130 54 130 38 c 0
 130 17 126 11 110 5 c 0
 101 2 83 0 65 -0 c 0
 61 0 58 0 54 0 c 0
 17 2 17 3 15 29 c 0
 15 32 15 35 15 38 c 0
 15 52 19 59 27 65 c 0
 40 74 41 89 45 241 c 0
 48 333 55 448 61 498 c 0
 67 548 72 613 72 644 c 2
 72 700 l 1
 45 702 l 2
 19 704 18 705 18 733 c 2
 18 762 l 1
 108 764 l 2
 115 764 123 765 130 765 c 0
 215 765 263 751 307 722 c 0
 364 684 383 637 383 569 c 0
 383 565 383 561 383 557 c 0
 380 471 361 396 293 343 c 0
 261 318 222 309 186 305 c 0
 175 304 166 298 166 293 c 0
 166 288 184 265 206 240 c 0
 228 215 246 192 246 189 c 0
 246 186 260 167 277 147 c 0
 294 127 319 89 325 77 c 1
 351 73 366 76 367 49 c 2
EndSplineSet
Validated: 1
EndChar

StartChar: s
Encoding: 115 115 44
Width: 301
VWidth: 0
Flags: HW
LayerCount: 2
Fore
SplineSet
52 17 m 0
 23 31 19 40 15 71 c 0
 15 73 15 74 15 76 c 0
 15 96 30 107 54 107 c 0
 69 107 84 98 105 88 c 0
 119 82 132 79 143 79 c 0
 153 79 163 81 171 85 c 0
 186 92 204 96 204 120 c 0
 204 142 165 174 123 181 c 0
 39 195 18 231 18 289 c 0
 18 291 18 292 18 294 c 0
 19 346 30 355 55 374 c 0
 76 390 134 400 185 400 c 0
 214 400 241 397 257 390 c 0
 281 380 286 372 286 345 c 0
 286 313 273 313 247 312 c 0
 246 312 244 312 243 312 c 0
 222 312 199 320 188 322 c 0
 182 323 172 325 160 325 c 0
 148 325 135 324 123 317 c 0
 107 308 96 298 96 287 c 0
 96 273 116 258 170 249 c 0
 190 246 226 231 243 216 c 0
 267 194 283 168 285 136 c 0
 285 133 285 131 285 128 c 0
 285 84 268 45 226 19 c 0
 205 6 173 0 139 0 c 0
 108 0 75 5 52 17 c 0
EndSplineSet
Validated: 1
EndChar

StartChar: t
Encoding: 116 116 45
Width: 349
VWidth: 0
Flags: HWO
LayerCount: 2
Fore
SplineSet
130 25 m 0
 120 41 112 57 112 114 c 0
 112 134 113 160 115 191 c 2
 124 331 l 1
 15 331 l 1
 19 400 l 1
 127 400 l 1
 141 528 l 1
 217 528 l 1
 210 465 l 2
 209 451 208 440 208 431 c 0
 208 402 220 400 262 400 c 0
 270 400 279 400 290 400 c 0
 292 400 294 400 296 400 c 2
 334 400 l 1
 328 332 l 1
 199 332 l 1
 190 217 l 2
 188 186 187 155 187 131 c 0
 187 111 187 97 189 93 c 0
 194 83 201 79 210 79 c 0
 226 79 247 91 264 91 c 0
 277 91 288 84 292 60 c 0
 293 55 293 50 293 46 c 0
 293 27 283 19 261 11 c 0
 245 5 215 0 192 0 c 0
 191 0 189 0 188 0 c 0
 161 1 141 9 130 25 c 0
EndSplineSet
Validated: 1
EndChar

StartChar: u
Encoding: 117 117 46
Width: 335
VWidth: 0
Flags: HW
LayerCount: 2
Fore
SplineSet
65 29 m 0
 27 67 15 126 15 273 c 0
 15 400 l 1
 40 400 64 400 89 400 c 1
 86 275 l 2
 86 260 86 247 86 234 c 0
 86 170 90 137 104 114 c 0
 117 92 138 80 159 80 c 0
 183 80 206 95 217 125 c 0
 232 166 241 208 241 278 c 0
 241 283 241 289 241 295 c 2
 239 400 l 1
 262 400 284 400 307 400 c 1
 307 400 307 337 307 305 c 0
 307 258 310 170 313 110 c 0
 315 73 320 0 320 0 c 1
 276 0 l 2
 251 0 249 4 249 15 c 0
 249 22 248 25 244 25 c 0
 240 25 233 22 220 15 c 0
 204 7 184 0 143 0 c 0
 107 0 82 12 65 29 c 0
EndSplineSet
Validated: 1
EndChar

StartChar: T
Encoding: 84 84 47
Width: 565
VWidth: 0
Flags: HW
LayerCount: 2
Fore
SplineSet
199 34 m 0
 199 61 203 68 218 68 c 0
 231 68 239 77 243 97 c 0
 245 108 247 184 247 284 c 0
 247 324 246 369 246 414 c 2
 243 702 l 1
 168 702 l 1
 92 702 l 1
 92 695 92 689 92 684 c 0
 92 655 89 647 60 647 c 0
 19 647 15 647 15 683 c 0
 15 687 15 691 15 696 c 2
 16 765 l 1
 546 765 l 1
 550 759 550 729 550 709 c 0
 550 706 550 704 550 702 c 0
 550 656 548 657 515 656 c 0
 511 656 508 656 505 656 c 0
 482 656 482 661 480 701 c 1
 480 701 455 702 394 702 c 2
 314 702 l 1
 318 411 l 2
 320 263 320 262 321 100 c 0
 321 76 338 70 347 70 c 0
 348 70 l 0
 361 70 361 53 362 32 c 2
 364 0 l 1
 327 0 252 0 200 0 c 1
 199 34 l 0
EndSplineSet
Validated: 1
EndChar

StartChar: U
Encoding: 85 85 48
Width: 518
VWidth: 0
Flags: HW
LayerCount: 2
Fore
SplineSet
161 28 m 0
 124 56 109 81 85 138 c 0
 59 200 50 275 47 430 c 0
 44 619 40 662 29 662 c 0
 20 662 15 677 15 693 c 0
 15 711 21 730 31 734 c 0
 39 737 70 740 99 740 c 2
 152 740 l 1
 152 706 l 2
 152 682 147 672 137 672 c 0
 113 672 118 631 115 439 c 0
 115 431 115 425 115 417 c 0
 115 342 121 272 141 199 c 0
 160 128 208 87 258 87 c 0
 288 87 319 101 345 132 c 0
 391 186 403 297 403 423 c 0
 403 440 402 457 402 474 c 0
 401 515 401 548 401 573 c 0
 401 593 401 609 401 621 c 0
 401 657 400 662 392 662 c 0
 380 662 376 671 376 696 c 2
 376 730 l 1
 439 730 l 1
 503 730 l 1
 503 696 l 2
 503 674 498 662 489 662 c 0
 478 662 474 619 470 445 c 0
 464 209 448 146 408 84 c 0
 380 41 316 0 257 0 c 0
 256 0 257 0 256 0 c 0
 217 0 185 10 161 28 c 0
EndSplineSet
Validated: 1
EndChar

StartChar: v
Encoding: 118 118 49
Width: 396
VWidth: 0
Flags: HW
LayerCount: 2
Fore
SplineSet
288 393 m 0
 298 393 308 392 318 392 c 0
 322 392 326 392 330 392 c 1
 335 392 341 393 346 393 c 0
 357 393 368 391 377 384 c 1
 380 381 381 377 381 373 c 0
 381 367 379 361 378 355 c 0
 376 344 379 331 371 323 c 1
 366 322 360 320 356 316 c 0
 340 300 329 280 319 260 c 0
 291 204 267 144 254 83 c 1
 251 70 249 57 249 44 c 0
 249 29 250 14 251 0 c 1
 217 0 183 0 149 0 c 0
 144 1 140 0 135 0 c 0
 134 0 133 0 132 0 c 1
 132 3 132 7 132 10 c 0
 132 18 132 27 132 36 c 0
 132 45 131 53 130 61 c 1
 119 114 101 164 83 215 c 0
 73 242 64 270 50 295 c 0
 44 305 39 316 28 321 c 1
 24 322 19 323 18 328 c 0
 16 336 15 344 15 352 c 0
 15 357 15 362 16 367 c 0
 16 375 22 380 29 382 c 0
 59 388 91 391 122 391 c 0
 125 391 127 391 130 391 c 0
 137 390 149 392 152 384 c 1
 153 377 153 371 153 364 c 0
 153 351 151 338 145 326 c 1
 139 319 137 310 138 301 c 0
 143 266 154 232 165 198 c 0
 170 183 174 168 182 154 c 1
 184 148 192 149 194 154 c 0
 208 179 218 208 227 236 c 0
 238 272 251 306 257 343 c 1
 258 345 258 349 258 351 c 0
 258 359 255 366 255 374 c 0
 255 376 255 379 256 381 c 1
 263 391 277 393 288 393 c 0
EndSplineSet
Validated: 1
EndChar

StartChar: w
Encoding: 119 119 50
Width: 578
VWidth: 0
Flags: HW
LayerCount: 2
Fore
SplineSet
312 30 m 0
 298 42 287 59 287 59 c 1
 273 42 l 2
 256 22 228 0 171 0 c 0
 145 0 114 6 79 25 c 0
 39 47 26 71 22 111 c 0
 18 153 15 227 15 286 c 0
 15 327 17 362 20 375 c 0
 25 396 32 400 59 400 c 2
 92 400 l 1
 90 280 l 2
 90 273 90 267 90 260 c 0
 90 202 93 148 96 136 c 0
 105 105 117 90 169 89 c 0
 170 89 170 89 171 89 c 0
 256 89 260 192 260 301 c 0
 260 312 259 322 259 333 c 2
 259 400 l 1
 282 400 305 400 328 400 c 1
 328 400 328 322 328 288 c 0
 328 210 329 206 333 165 c 0
 338 113 361 90 401 90 c 0
 402 90 l 0
 446 90 494 104 496 304 c 2
 496 400 l 1
 518 400 540 400 562 400 c 1
 562 400 562 267 562 200 c 0
 562 0 l 1
 528 0 l 2
 510 0 493 5 491 11 c 0
 489 16 488 21 482 21 c 0
 478 21 473 19 465 15 c 0
 447 5 442 0 399 0 c 0
 357 0 326 18 312 30 c 0
EndSplineSet
Validated: 1
EndChar

StartChar: W
Encoding: 87 87 51
Width: 810
VWidth: 0
Flags: HW
LayerCount: 2
Fore
SplineSet
485 28 m 0
 485 47 489 69 498 70 c 0
 505 71 508 73 508 77 c 0
 508 83 502 93 498 108 c 0
 462 237 442 320 428 415 c 0
 420 471 410 515 406 515 c 0
 402 515 394 490 391 469 c 0
 387 446 377 397 366 359 c 0
 355 321 339 265 331 233 c 0
 323 201 310 154 302 130 c 0
 293 103 289 89 289 81 c 0
 289 73 294 72 303 72 c 0
 312 72 317 64 317 44 c 0
 317 42 317 40 317 38 c 2
 316 0 l 1
 268 0 220 0 172 0 c 1
 173 38 l 2
 173 57 176 72 181 72 c 0
 191 72 197 74 197 88 c 0
 197 121 166 221 102 509 c 0
 68 660 59 678 38 686 c 0
 19 693 15 702 15 731 c 2
 15 767 l 1
 144 766 l 2
 168 766 171 751 171 720 c 0
 171 696 167 686 156 686 c 0
 146 686 143 680 146 669 c 0
 159 626 220 352 231 292 c 0
 238 254 242 238 245 238 c 0
 247 238 248 244 251 253 c 0
 312 471 351 635 351 681 c 0
 351 688 350 693 348 694 c 0
 342 696 337 713 337 732 c 2
 337 767 l 1
 475 766 l 2
 489 766 493 747 493 720 c 0
 493 695 489 686 477 686 c 0
 476 686 475 686 474 686 c 0
 468 686 465 685 465 673 c 0
 465 654 473 606 492 491 c 0
 503 424 522 336 532 296 c 0
 542 256 554 210 557 194 c 0
 559 186 560 182 562 182 c 0
 567 182 574 206 591 267 c 0
 648 478 682 633 682 677 c 0
 682 685 681 689 679 690 c 0
 673 692 668 707 668 725 c 2
 668 766 l 1
 710 766 753 766 795 766 c 1
 795 728 l 2
 795 711 789 694 782 688 c 0
 775 682 758 616 743 549 c 0
 709 392 695 337 655 191 c 0
 638 130 631 97 631 82 c 0
 631 75 633 72 636 72 c 0
 644 72 649 60 649 39 c 1
 647 0 l 1
 591 0 l 2
 557 0 533 -1 517 -1 c 0
 488 -1 485 3 485 28 c 0
EndSplineSet
Validated: 1
EndChar

StartChar: x
Encoding: 120 120 52
Width: 338
VWidth: 0
Flags: HW
LayerCount: 2
Fore
SplineSet
78 417 m 0
 85 417 93 417 100 417 c 0
 122 417 l 1
 121 403 120 390 120 376 c 0
 120 369 120 362 121 355 c 1
 123 328 141 306 155 284 c 1
 169 303 188 320 198 342 c 1
 209 363 205 387 211 409 c 0
 212 415 219 415 224 416 c 0
 227 416 230 416 233 416 c 0
 253 416 274 413 294 410 c 0
 300 408 311 408 312 400 c 0
 313 394 314 389 314 383 c 0
 314 374 312 365 309 357 c 1
 300 353 293 347 287 339 c 0
 262 304 237 268 209 234 c 1
 207 230 199 226 203 221 c 1
 226 182 251 145 270 104 c 0
 275 96 276 88 280 80 c 0
 287 69 300 66 311 62 c 0
 321 59 323 48 323 39 c 0
 323 37 323 35 323 33 c 0
 323 24 322 15 316 11 c 1
 296 5 276 3 255 1 c 0
 251 1 246 0 241 0 c 0
 235 0 231 0 227 5 c 1
 225 15 224 26 221 36 c 0
 210 71 195 105 172 134 c 1
 168 141 159 145 152 140 c 1
 138 123 129 103 122 82 c 0
 114 60 112 38 112 15 c 0
 112 10 112 5 112 0 c 1
 86 1 59 1 33 5 c 1
 26 5 19 7 17 14 c 0
 15 21 15 29 15 36 c 0
 15 42 15 47 16 52 c 0
 17 56 18 61 23 63 c 1
 33 73 41 86 48 98 c 0
 66 131 81 166 102 197 c 1
 106 202 110 210 110 217 c 0
 110 221 109 224 107 227 c 1
 90 248 78 271 66 295 c 0
 55 314 46 335 29 350 c 1
 21 354 16 361 15 370 c 0
 15 374 15 379 15 383 c 0
 15 393 17 404 24 411 c 1
 41 418 60 416 78 417 c 0
EndSplineSet
Validated: 1
EndChar

StartChar: X
Encoding: 88 88 53
Width: 599
VWidth: 0
Flags: HW
LayerCount: 2
Fore
SplineSet
21 1 m 0
 18 4 15 18 15 32 c 0
 15 52 19 59 33 64 c 0
 43 68 58 85 67 104 c 0
 92 155 172 277 213 328 c 0
 229 347 241 368 241 372 c 0
 241 376 234 392 225 408 c 0
 186 476 91 668 91 678 c 0
 91 684 82 692 71 696 c 0
 58 701 54 706 54 720 c 0
 54 723 55 727 55 732 c 2
 57 760 l 1
 121 760 l 1
 185 760 l 1
 187 734 l 2
 187 731 188 729 188 726 c 0
 188 713 184 704 178 700 c 0
 175 698 174 696 174 692 c 0
 174 678 193 639 272 488 c 2
 297 442 l 1
 310 459 l 2
 318 469 324 479 324 482 c 0
 324 485 333 500 345 515 c 0
 357 530 369 547 372 553 c 0
 375 559 397 594 421 629 c 0
 447 667 460 687 460 697 c 0
 460 699 459 700 458 701 c 0
 455 705 453 716 453 727 c 0
 453 730 453 732 453 735 c 2
 456 760 l 1
 520 760 l 1
 584 760 l 1
 584 730 l 2
 584 705 581 700 567 698 c 0
 556 696 546 685 536 663 c 0
 528 645 505 606 485 576 c 0
 465 546 443 514 437 504 c 0
 397 443 347 378 347 375 c 0
 347 359 417 217 446 176 c 0
 454 165 460 153 460 150 c 0
 460 147 469 133 481 118 c 0
 493 103 504 85 507 78 c 0
 510 71 521 64 533 63 c 0
 552 61 554 57 554 30 c 2
 554 0 l 1
 482 0 l 1
 411 0 l 1
 411 38 l 2
 411 59 407 81 403 87 c 0
 399 93 392 105 387 113 c 0
 382 121 372 141 362 158 c 0
 352 175 333 211 319 239 c 0
 305 267 291 290 289 290 c 0
 281 290 189 160 189 149 c 0
 189 146 184 139 178 132 c 0
 159 111 143 78 143 64 c 0
 143 61 144 59 145 58 c 0
 148 55 150 45 150 34 c 0
 150 31 150 28 150 25 c 2
 147 0 l 1
 87 -2 l 2
 79 -2 71 -3 64 -3 c 0
 41 -3 23 -1 21 1 c 0
EndSplineSet
Validated: 1
EndChar

StartChar: y
Encoding: 121 121 54
Width: 349
VWidth: 0
Flags: HW
LayerCount: 2
Fore
SplineSet
29 -116 m 1
 75 -69 l 1
 112 -102 125 -126 167 -126 c 0
 168 -126 168 -126 169 -126 c 0
 238 -125 266 -74 266 3 c 0
 266 14 265 36 265 36 c 1
 243 14 211 0 175 0 c 0
 174 0 175 0 174 0 c 0
 111 0 83 31 65 54 c 0
 38 90 18 143 17 287 c 0
 17 325 15 401 15 401 c 1
 38 401 60 401 83 401 c 1
 83 401 83 343 83 314 c 0
 83 197 104 121 131 99 c 0
 144 88 158 83 172 83 c 0
 196 83 221 98 241 127 c 0
 261 157 265 206 265 257 c 0
 265 284 264 311 264 336 c 2
 264 401 l 1
 286 401 312 401 334 401 c 1
 334 401 333 129 333 28 c 0
 333 14 333 6 333 -4 c 0
 333 -94 316 -123 289 -154 c 0
 264 -183 218 -197 178 -197 c 0
 176 -197 174 -197 172 -197 c 0
 94 -194 67 -166 29 -116 c 1
EndSplineSet
Validated: 1
EndChar

StartChar: Y
Encoding: 89 89 55
Width: 601
VWidth: 0
Flags: HW
LayerCount: 2
Fore
SplineSet
218 0 m 0
 215 3 214 16 214 30 c 0
 214 49 217 55 228 58 c 0
 238 61 243 68 243 81 c 0
 243 105 243 127 243 147 c 0
 243 320 228 347 201 405 c 0
 157 499 113 595 60 687 c 0
 57 693 43 696 33 697 c 0
 17 699 15 704 15 729 c 2
 15 757 l 1
 94 757 l 1
 174 757 l 1
 176 730 l 2
 176 725 177 721 177 718 c 0
 177 705 173 701 163 698 c 0
 155 696 149 694 149 693 c 0
 149 692 159 671 171 645 c 0
 214 556 250 479 250 474 c 0
 250 471 256 460 264 450 c 2
 279 432 l 1
 293 450 l 2
 301 460 319 488 333 512 c 0
 347 536 367 568 377 584 c 0
 387 600 396 618 399 624 c 0
 402 630 412 646 421 660 c 0
 430 673 434 679 434 683 c 0
 434 687 430 687 423 690 c 0
 412 694 409 702 409 720 c 0
 409 752 417 760 475 760 c 0
 484 760 495 760 507 760 c 2
 586 757 l 1
 586 729 l 2
 586 702 584 699 562 697 c 0
 544 695 534 687 514 660 c 0
 500 641 488 623 488 620 c 0
 488 617 483 609 478 603 c 0
 473 597 460 577 451 559 c 0
 442 541 427 516 418 504 c 0
 409 492 401 479 401 476 c 0
 401 473 387 450 369 424 c 0
 351 398 331 368 325 356 c 0
 314 335 308 291 308 230 c 0
 308 207 309 180 311 152 c 0
 316 78 318 68 330 65 c 0
 339 63 344 48 344 33 c 0
 344 22 341 10 335 4 c 0
 330 -1 292 -5 261 -5 c 0
 240 -5 221 -3 218 0 c 0
EndSplineSet
Validated: 1
EndChar

StartChar: z
Encoding: 122 122 56
Width: 323
VWidth: 0
Flags: HW
LayerCount: 2
Fore
SplineSet
308 93 m 0
 308 89 308 83 308 77 c 0
 308 53 l 1
 308 13 l 1
 241 13 l 2
 204 13 141 9 100 6 c 2
 25 0 l 1
 25 30 l 2
 25 51 48 97 98 177 c 0
 138 241 176 304 181 318 c 2
 190 344 l 1
 137 344 l 2
 96 344 84 340 84 329 c 0
 84 319 73 315 49 315 c 2
 15 315 l 1
 15 362 l 2
 15 421 16 422 183 422 c 2
 308 422 l 1
 308 389 l 2
 308 371 303 352 297 348 c 0
 291 344 272 310 254 272 c 0
 236 234 203 176 181 142 c 2
 142 81 l 1
 191 81 l 2
 228 81 240 84 240 95 c 0
 240 105 250 110 272 110 c 1
 272 110 298 110 304 107 c 0
 308 105 307 99 308 93 c 0
EndSplineSet
Validated: 1
EndChar

StartChar: Z
Encoding: 90 90 57
Width: 526
VWidth: 0
Flags: HW
LayerCount: 2
Fore
SplineSet
150 -4 m 2
 33 0 l 1
 31 25 l 2
 31 28 31 30 31 33 c 0
 31 44 33 55 36 59 c 0
 40 64 54 93 66 124 c 0
 87 177 119 243 156 307 c 0
 165 323 179 348 188 363 c 0
 217 415 319 572 340 600 c 0
 352 615 361 629 361 632 c 0
 361 635 371 650 383 666 c 0
 395 682 406 696 406 698 c 0
 406 703 236 709 151 709 c 0
 128 709 111 709 106 708 c 0
 91 705 83 697 81 686 c 0
 79 672 73 670 48 670 c 2
 18 670 l 1
 16 712 l 2
 16 721 15 728 15 735 c 0
 15 768 30 774 145 774 c 0
 176 774 214 773 261 773 c 0
 393 772 488 769 497 764 c 0
 506 759 511 747 511 734 c 0
 511 719 505 701 494 686 c 0
 485 673 474 657 470 650 c 0
 466 643 432 592 395 537 c 0
 358 482 326 433 324 429 c 0
 322 425 314 411 305 399 c 0
 296 387 286 369 281 361 c 0
 270 342 247 303 222 260 c 0
 202 226 127 75 127 69 c 0
 127 65 255 61 332 61 c 0
 355 61 373 61 383 62 c 0
 412 65 421 69 424 80 c 0
 426 89 430 93 444 93 c 0
 447 93 451 93 456 93 c 2
 485 90 l 1
 485 45 l 1
 485 0 l 1
 440 -5 l 2
 416 -8 388 -9 346 -9 c 0
 301 -9 239 -7 150 -4 c 2
EndSplineSet
Validated: 1
EndChar

StartChar: colon
Encoding: 58 58 59
Width: 138
VWidth: 0
Flags: HW
LayerCount: 2
Fore
SplineSet
19 336 m 0
 16 343 15 357 15 371 c 0
 15 378 15 385 16 392 c 0
 20 425 25 428 72 428 c 0
 78 428 l 0
 123 428 123 428 123 383 c 0
 123 377 l 0
 123 327 122 325 75 321 c 0
 69 320 63 320 58 320 c 0
 35 320 23 325 19 336 c 0
19 14 m 0
 16 21 15 35 15 49 c 0
 15 56 15 63 16 70 c 0
 20 103 25 106 72 106 c 0
 78 106 l 0
 123 106 123 106 123 61 c 0
 123 55 l 0
 123 5 122 3 75 -1 c 0
 69 -2 63 -2 58 -2 c 0
 35 -2 23 3 19 14 c 0
EndSplineSet
Validated: 1
EndChar

StartChar: hyphen
Encoding: 45 45 60
Width: 326
VWidth: 0
Flags: HW
LayerCount: 2
Fore
SplineSet
28 291 m 0
 44 292 63 293 83 293 c 0
 133 293 192 290 245 290 c 0
 263 290 279 291 295 291 c 0
 305 291 311 277 311 263 c 0
 311 251 307 239 298 238 c 0
 279 236 258 236 236 236 c 0
 182 236 122 240 74 240 c 0
 58 240 44 239 31 238 c 0
 30 238 l 0
 20 238 15 253 15 267 c 0
 15 279 19 290 28 291 c 0
EndSplineSet
Validated: 1
EndChar
